<svg width="75" height="33" viewBox="0 0 75 33" fill="none" xmlns="http://www.w3.org/2000/svg">
<path d="M5.6804 5.03612C5.20546 4.46534 5.14817 3.671 4.85859 2.81002C4.74055 2.45976 4.59906 2.06481 4.44511 1.65447C4.37106 1.42145 4.19507 0.685021 4.02724 0.540687C3.48344 0.0893716 2.54924 0.807656 2.4907 1.36459C2.45704 1.68482 2.64616 2.02847 2.77812 2.3802C2.89908 2.70261 3.04203 3.08364 3.13954 3.36135C3.35362 4.00324 3.73916 4.62093 3.90708 5.3002C4.00019 5.61968 4.20762 5.92303 4.30074 6.24251C4.44959 6.83532 4.38005 7.36294 4.2578 8.12433C4.15532 8.83149 3.49022 10.6057 4.32783 10.8063C4.79684 10.8979 5.20642 10.6171 5.32877 10.3907C5.3881 10.228 5.48255 9.73116 5.53966 9.45562C5.6495 8.94631 5.75056 8.52054 5.81863 8.00684C5.87353 7.61845 5.96576 7.00875 6.06319 6.75153C6.14522 6.50676 6.35256 6.27516 6.56283 6.01572C6.72841 5.77974 6.89252 5.55767 7.07055 5.33708C7.96072 4.23408 8.42086 3.87421 9.38433 2.87746C9.59021 2.65978 10.3215 2.13133 10.2224 1.60007C10.1278 1.02704 9.41042 1.02202 9.16862 1.17961C9.06238 1.2529 8.79863 1.61934 8.66968 1.77471C8.52242 1.97039 8.33339 2.16168 8.19198 2.30167C7.60365 2.94369 7.12303 3.49849 6.56254 4.14343C6.29072 4.45272 6.07681 4.8807 5.6804 5.03612ZM10.7632 4.33155C10.3103 4.35434 10.0714 4.48408 9.71092 4.69958C9.13793 5.06167 9.05222 5.20751 8.6793 5.67509C7.97155 6.51571 7.65011 8.1008 8.28121 9.19476C8.64109 9.65489 9.40181 10.1853 10.1046 10.3296C10.9437 10.5163 11.609 10.3469 12.1747 10.0544C13.1639 9.48271 13.917 8.47793 13.8795 7.36189C14.0111 5.57386 12.8201 4.18174 10.7632 4.33155ZM9.45127 7.83964C9.40423 6.94784 10.2086 5.72321 10.9751 5.663C11.9688 5.58444 12.6944 6.71649 12.3209 7.8597C12.1297 8.47308 11.4754 8.93924 11.0306 9.01919C10.0868 9.1593 9.49095 8.53359 9.45127 7.83964ZM16.2843 5.6157C15.0789 5.43269 14.8592 6.45131 14.6908 7.51755C14.633 7.93379 14.5181 8.89303 14.524 9.37228C14.541 10.4158 15.1706 10.9887 15.9034 11.2487C17.915 11.798 18.8126 10.8929 19.4235 9.36638C19.6505 8.81309 19.7999 8.19532 19.8724 7.63985C19.9566 6.97299 20.0516 5.80051 19.6727 5.52137C19.4382 5.34188 18.7414 5.4094 18.5861 5.81539C18.4264 6.26316 18.4053 7.40119 18.2852 8.00796C18.1351 8.76642 17.6246 10.0079 17.0588 10.0329C15.4057 10.2251 16.1389 7.93722 16.3659 6.84898C16.4669 6.42321 16.6354 5.89191 16.2843 5.6157ZM26.3689 2.90297C25.7695 2.98074 25.3812 3.99572 26.0335 4.21911C26.5633 4.4015 27.3165 3.93166 27.2402 3.31832C27.1933 2.96146 26.7983 2.83548 26.3689 2.90297ZM25.9495 6.22332C25.3933 6.29156 25.315 6.90272 25.2 7.32702C25.1517 7.51902 24.9972 8.31926 24.9438 8.69372C24.8201 9.73651 24.6099 10.5309 24.3624 11.5466C24.0028 12.9587 23.6521 14.8223 22.5999 15.1903C22.2789 15.2973 21.2039 15.2125 21.1131 15.8083C21.0238 16.3901 21.7882 16.752 22.4015 16.6757C22.6147 16.6559 22.9606 16.5796 23.1812 16.4902C23.431 16.3898 23.6868 16.2336 23.8377 16.1369C24.1703 15.9185 24.7645 15.2207 24.9572 14.8609C25.1345 14.5135 25.2121 14.0431 25.3732 13.5814C25.4992 13.1864 25.6003 12.7606 25.6999 12.3488C25.8881 11.4958 26.1363 10.6069 26.2798 9.77732C26.3904 9.12731 26.4965 8.51907 26.6166 7.9123C26.6825 7.55322 26.8898 7.05416 26.7652 6.63282C26.6831 6.34265 26.3218 6.1639 25.9495 6.22332ZM29.2015 6.97335C27.996 6.79034 27.7763 7.80896 27.6079 8.8752C27.5501 9.29143 27.4352 10.2507 27.4411 10.7299C27.4582 11.7734 28.0877 12.3464 28.8206 12.6064C30.8322 13.1557 31.7297 12.2505 32.3406 10.724C32.5677 10.1707 32.7171 9.55296 32.7895 8.99749C32.8737 8.33064 32.9688 7.15815 32.5899 6.87902C32.3554 6.69952 31.6585 6.76705 31.5032 7.17304C31.3435 7.6208 31.3224 8.75883 31.2024 9.3656C31.0523 10.1241 30.5417 11.3655 29.976 11.3905C28.3228 11.5828 29.056 9.29486 29.283 8.20663C29.384 7.78086 29.5525 7.24956 29.2015 6.97335ZM36.2326 7.00849C35.4719 7.01301 34.7509 7.17654 34.1853 7.73648C33.964 7.96661 33.83 8.57192 33.8198 8.93685C33.8001 9.52602 34.3366 10.047 34.7734 10.4448C35.134 10.7642 36.0295 11.3511 35.8831 11.941C34.9277 12.9949 34.4988 11.8518 33.7133 12.093C33.5682 12.1341 33.385 12.2697 33.344 12.392C33.1441 13.089 33.32 13.2905 34.4757 13.6794C34.9652 13.8435 35.7427 13.8126 36.1603 13.589C36.7414 13.2841 37.2484 12.7461 37.3567 11.9833C37.4929 10.9559 36.6772 10.2789 36.1531 9.77334C36.0381 9.6627 35.3521 9.2246 35.4209 8.83767C35.4956 8.39505 35.9543 8.31657 36.6982 8.60591C36.9635 8.76049 37.5527 9.31512 37.8546 9.12161C38.0026 9.05271 38.3382 8.80644 38.3345 8.44004C38.33 7.94687 37.8236 7.54172 37.29 7.26041C37.0233 7.11975 36.3037 7.00189 36.2326 7.00849ZM42.7685 7.85029C42.7148 6.88741 43.005 6.53782 43.18 5.81013C43.3565 5.33599 43.4781 4.98276 42.7776 4.95136C41.6718 4.89144 41.6866 5.82209 41.4764 6.61647C41.387 6.93085 41.2296 7.75894 40.9753 7.90114C40.7365 8.03088 39.7772 7.91598 39.4775 7.95487C39.1874 8.03699 38.9214 8.29057 38.8518 8.55073C38.7573 8.78011 38.8094 9.22197 39.0857 9.40586C39.469 9.64322 40.489 9.31404 40.7573 9.70824C40.6167 10.5099 40.5355 11.1489 40.3963 11.6693C40.356 11.9184 40.0777 12.959 40.0096 13.2052C39.9584 13.4251 39.5262 14.5903 39.5863 14.8219C39.6633 15.027 40.0957 15.1992 40.4064 15.1896C41.1128 15.1653 41.3588 13.6286 41.506 13.1654C41.577 12.8914 41.8289 11.8339 41.8861 11.5584C41.9629 11.2286 42.2258 9.66551 42.5137 9.47054C42.7878 9.27411 43.9192 9.49157 44.3743 9.31416C44.6828 9.19174 44.8923 8.80552 44.8482 8.42081C44.7778 7.75178 43.069 8.20565 42.7685 7.85029ZM50.9005 11.3233C50.8147 10.3993 51.4849 8.71012 50.3491 8.80189C49.6954 8.85989 49.6333 9.85283 49.522 10.6435C49.3764 11.6277 49.1479 12.4624 48.948 13.4268C48.7583 14.2937 48.4961 15.1812 49.5205 15.0777C49.9038 15.0476 50.4906 13.8845 50.7712 13.4917C51.262 12.8394 51.1631 12.8431 51.9559 11.9974C52.2753 11.6368 52.6094 11.137 53.0469 11.1266C53.0645 11.762 52.954 12.1445 52.8002 12.804C52.631 13.476 52.4838 14.2066 52.4539 14.8933C52.7214 15.4282 53.6916 15.3049 53.9224 14.8505C53.9942 14.7032 53.9736 14.3632 54 14.1126C54.1207 13.0977 54.6356 11.547 54.6531 10.5775C54.6581 10.1276 54.4895 9.589 54.3326 9.47397C53.8277 9.05489 53.2452 9.37375 52.8554 9.60024C52.3439 9.91249 51.9072 10.3171 51.5526 10.7443C51.3746 10.9649 51.176 11.113 50.9005 11.3233ZM57.1764 13.8834C57.5223 13.8071 58.1107 13.7 58.5555 13.6201C59.215 13.5064 59.5557 13.3451 60.2057 13.1882C60.5948 13.1024 60.9091 12.6568 60.9208 12.278C60.9471 12.0274 60.8107 11.4499 60.7308 11.2726C60.2799 9.80344 59.1806 9.27966 57.7664 9.60964C57.1919 9.71818 56.5083 10.1953 56.1083 10.7868C55.5983 11.3526 55.353 12.2136 55.4917 13.4388C55.7476 14.6201 56.0672 15.0619 57.1467 15.6399C57.8173 16.0905 59.2008 16.0529 59.965 15.6123C60.2222 15.4423 60.3372 15.018 60.0645 14.6656C59.5691 14.2897 59.1002 15.0006 58.1878 14.7076C57.5884 14.5179 57.2395 14.3546 57.1764 13.8834ZM57.453 11.2519C58.4048 10.634 59.2344 10.7775 59.4852 11.8737C59.3907 12.1031 58.962 12.2973 58.6345 12.3333C58.1369 12.3795 57.2583 12.5687 57.0121 12.5006C56.927 12.2383 57.0603 11.5062 57.453 11.2519ZM63.4175 14.5393C63.7633 14.4631 64.3517 14.356 64.7965 14.2761C65.456 14.1624 65.7968 14.0011 66.4467 13.8442C66.8358 13.7584 67.1501 13.3128 67.1618 12.9339C67.1881 12.6833 67.0517 12.1059 66.9718 11.9286C66.5209 10.4594 65.4217 9.93562 64.0074 10.2656C63.4329 10.3741 62.7493 10.8513 62.3493 11.4427C61.8394 12.0085 61.594 12.8696 61.7327 14.0948C61.9886 15.276 62.3082 15.7178 63.3877 16.2959C64.0583 16.7464 65.4418 16.7088 66.206 16.2683C66.4632 16.0982 66.5782 15.6739 66.3055 15.3215C65.8101 14.9457 65.3412 15.6565 64.4288 15.3636C63.8294 15.1739 63.4805 15.0105 63.4175 14.5393ZM63.694 11.9078C64.6458 11.2899 65.4754 11.4334 65.7262 12.5297C65.6317 12.759 65.203 12.9533 64.8755 12.9893C64.3779 13.0355 63.4993 13.2247 63.2531 13.1566C63.168 12.8943 63.3013 12.1622 63.694 11.9078ZM71.6133 18.4273C72.2531 18.6354 72.6737 18.3839 72.8187 17.8079C73.086 16.738 73.151 15.1823 73.3405 13.7804C73.517 12.7713 73.7696 11.5732 73.9658 10.5099C74.1342 9.7111 74.6015 8.21173 73.9031 8.02571C73.6877 7.93268 73.2194 7.96793 73.103 8.13869C72.7081 8.81512 72.8205 10.8259 72.1889 11.21C71.2978 11.1163 70.5064 11.1457 69.7568 11.447C69.0783 11.7417 68.5786 12.2101 68.1925 12.803C67.8767 13.2625 67.6387 14.0539 67.7575 14.7984C67.8793 15.5151 68.5455 16.2749 69.123 16.6734C69.7548 17.0918 70.4971 17.1275 71.2453 17.3751C71.3956 17.6865 71.3092 18.2405 71.6133 18.4273ZM71.7827 14.405C71.6956 14.8322 71.6158 15.7248 71.4444 16.0165C70.7739 16.1009 69.8058 15.5346 69.4576 14.963C68.883 14.0017 69.7086 12.7089 70.7492 12.7198C71.3955 12.7314 71.7473 12.5994 71.9283 12.8859C71.995 13.1885 71.8713 13.9639 71.7827 14.405ZM5.77814 17.8847C5.32528 17.9075 5.08641 18.0372 4.7259 18.2527C4.15292 18.6148 4.0672 18.7607 3.69428 19.2283C2.98654 20.0689 2.66509 21.654 3.2962 22.7479C3.65607 23.2081 4.41679 23.7385 5.11957 23.8827C5.95864 24.0695 6.62399 23.9001 7.18967 23.6076C8.17885 23.0359 8.932 22.0311 8.89445 20.9151C9.02607 19.127 7.83507 17.7349 5.77814 17.8847ZM4.46626 21.3928C4.41922 20.501 5.22363 19.2764 5.99012 19.2162C6.98378 19.1376 7.70942 20.2697 7.33588 21.4129C7.14472 22.0263 6.49041 22.4924 6.04561 22.5724C5.1018 22.7125 4.50594 22.0868 4.46626 21.3928ZM11.488 21.258C11.4021 20.334 12.0723 18.6448 10.9365 18.7366C10.2829 18.7946 10.2207 19.7875 10.1095 20.5782C9.9638 21.5624 9.7353 22.3971 9.5354 23.3615C9.34574 24.2284 9.08354 25.1158 10.108 25.0124C10.4912 24.9823 11.078 23.8192 11.3586 23.4264C11.8495 22.7741 11.7505 22.7778 12.5433 21.932C12.8627 21.5715 13.1968 21.0716 13.6343 21.0613C13.652 21.6966 13.5414 22.0792 13.3876 22.7387C13.2184 23.4107 13.0713 24.1413 13.0413 24.828C13.3089 25.3629 14.2791 25.2396 14.5098 24.7852C14.5816 24.6379 14.561 24.2979 14.5874 24.0473C14.7081 23.0324 15.223 21.4817 15.2405 20.5122C15.2455 20.0623 15.0769 19.5237 14.9201 19.4087C14.4151 18.9896 13.8326 19.3084 13.4428 19.5349C12.9313 19.8472 12.4947 20.2518 12.1401 20.679C11.962 20.8996 11.7635 21.0477 11.488 21.258ZM17.7639 23.8181C18.1097 23.7418 18.6982 23.6347 19.143 23.5548C19.8024 23.4411 20.1432 23.2798 20.7931 23.1229C21.1822 23.0371 21.4965 22.5915 21.5082 22.2127C21.5345 21.962 21.3981 21.3846 21.3182 21.2073C20.8673 19.7381 19.7681 19.2143 18.3538 19.5443C17.7793 19.6529 17.0957 20.13 16.6957 20.7215C16.1858 21.2873 15.9404 22.1483 16.0791 23.3735C16.335 24.5548 16.6546 24.9966 17.7341 25.5746C18.4047 26.0251 19.7882 25.9876 20.5524 25.547C20.8096 25.377 20.9246 24.9527 20.6519 24.6002C20.1565 24.2244 19.6876 24.9353 18.7753 24.6423C18.1758 24.4526 17.827 24.2892 17.7639 23.8181ZM18.0405 21.1866C18.9923 20.5687 19.8218 20.7122 20.0726 21.8084C19.9781 22.0378 19.5494 22.232 19.2219 22.268C18.7243 22.3142 17.8457 22.5034 17.5995 22.4353C17.5145 22.173 17.6477 21.4409 18.0405 21.1866ZM29.938 20.5789C29.8844 19.616 30.1745 19.2664 30.3495 18.5387C30.5261 18.0646 30.6476 17.7113 29.9471 17.6799C28.8413 17.62 28.8561 18.5507 28.6459 19.3451C28.5566 19.6594 28.3991 20.4875 28.1449 20.6297C27.906 20.7595 26.9468 20.6446 26.6471 20.6834C26.3569 20.7656 26.0909 21.0192 26.0213 21.2793C25.9268 21.5087 25.9789 21.9506 26.2552 22.1344C26.6385 22.3718 27.6585 22.0426 27.9268 22.4368C27.7862 23.2385 27.705 23.8775 27.5658 24.3978C27.5256 24.647 27.2473 25.6876 27.1792 25.9338C27.1279 26.1537 26.6957 27.3189 26.7559 27.5504C26.8328 27.7556 27.2652 27.9277 27.5759 27.9182C28.2823 27.8939 28.5283 26.3572 28.6755 25.894C28.7466 25.6199 28.9985 24.5625 29.0556 24.2869C29.1325 23.9572 29.3953 22.3941 29.6833 22.1991C29.9573 22.0027 31.0888 22.2201 31.5438 22.0427C31.8523 21.9203 32.0618 21.5341 32.0178 21.1494C31.9473 20.4804 30.2385 20.9342 29.938 20.5789ZM33.5885 22.4406C34.0992 22.5366 34.7499 21.9715 35.8117 21.9142C36.1275 21.9896 36.5248 22.7633 36.127 23.2002C35.8749 23.4552 34.6863 23.2458 33.9821 23.383C33.5791 23.4673 33.0611 23.7085 32.8456 23.8829C32.5071 24.157 32.0939 24.6063 32.1695 25.3603C32.1776 25.6849 32.4253 26.0066 32.6526 26.2557C33.1964 26.9745 33.7966 27.291 34.5844 27.6976C34.8109 27.8199 35.3715 27.9774 35.6126 27.9605C35.9511 27.9538 36.3658 27.4906 36.4925 27.2224C36.7943 26.494 37.0141 25.7428 37.2521 24.9514C37.4381 24.253 37.7523 23.2724 37.6928 22.3653C37.6575 21.6295 37.2544 20.9115 36.7722 20.6778C35.9155 20.3907 35.2025 20.6113 34.2785 20.9647C33.8125 21.1128 33.2556 21.3217 33.2667 21.886C33.2821 22.141 33.3342 22.3154 33.5885 22.4406ZM34.8998 24.5633C35.1658 24.5772 35.7022 24.5632 35.8671 24.7354C35.8159 25.2227 35.6717 26.193 35.2283 26.259C34.5702 26.0913 33.5707 25.6906 33.6416 24.8816C33.8797 24.6251 34.3678 24.5356 34.8998 24.5633ZM40.499 21.8015C40.4637 21.3332 40.5406 21.0035 40.6366 20.4927C40.7603 19.9849 41.0123 19.1949 40.8473 18.7552C40.6413 18.1705 39.8162 18.2527 39.5356 18.6455C39.2895 19.1123 39.1629 20.183 39.0501 20.7201C38.7791 21.9586 38.4379 23.3304 38.1868 24.7821C38.0748 25.4461 37.7986 26.332 37.8039 26.952C37.8054 27.473 37.9513 28.0937 38.6123 28.2335C39.0381 28.3346 40.2127 28.0076 40.5644 27.8756C41.1785 27.6586 41.7302 27.3647 42.2951 26.9454C43.0308 26.3752 43.8653 25.5338 43.9377 24.4434C44.002 23.2958 43.0793 22.5654 42.1097 22.2805C41.5631 22.1245 40.8398 22.1752 40.499 21.8015ZM39.5601 25.1095C39.6611 24.4162 39.842 23.6328 40.2112 23.3338C41.1741 23.2802 42.4478 23.7519 42.4215 24.5374C42.3952 25.0555 41.6765 25.5994 41.2903 25.9248C40.8859 26.2905 39.6725 26.8528 39.2548 26.8089L39.5601 25.1095ZM50.1578 25.3224C50.0719 24.3984 50.7421 22.7092 49.6063 22.8009C48.9527 22.8589 48.8905 23.8519 48.7793 24.6426C48.6336 25.6267 48.4051 26.4614 48.2052 27.4258C48.0156 28.2927 47.7534 29.1802 48.7778 29.0767C49.161 29.0466 49.7478 27.8836 50.0284 27.4908C50.5193 26.8385 50.4204 26.8422 51.2131 25.9964C51.5325 25.6358 51.8666 25.136 52.3041 25.1257C52.3218 25.761 52.2112 26.1435 52.0574 26.8031C51.8882 27.4751 51.7411 28.2057 51.7111 28.8923C51.9787 29.4272 52.9489 29.304 53.1796 28.8496C53.2514 28.7023 53.2309 28.3623 53.2572 28.1117C53.3779 27.0967 53.8929 25.546 53.9103 24.5766C53.9154 24.1266 53.7467 23.588 53.5899 23.473C53.0849 23.0539 52.5024 23.3728 52.1126 23.5993C51.6012 23.9115 51.1645 24.3161 50.8099 24.7434C50.6318 24.964 50.4333 25.112 50.1578 25.3224ZM57.3651 23.3067C56.9122 23.3295 56.6733 23.4593 56.3128 23.6748C55.7399 24.0368 55.6541 24.1827 55.2812 24.6503C54.5735 25.4909 54.252 27.076 54.8831 28.1699C55.243 28.6301 56.0037 29.1605 56.7065 29.3047C57.5456 29.4915 58.2109 29.3221 58.7766 29.0296C59.7658 28.4579 60.5189 27.4531 60.4814 26.3371C60.613 24.549 59.422 23.1569 57.3651 23.3067ZM56.0532 26.8148C56.0062 25.923 56.8106 24.6984 57.5771 24.6382C58.5707 24.5596 59.2964 25.6917 58.9228 26.8349C58.7317 27.4483 58.0773 27.9144 57.6326 27.9944C56.6887 28.1345 56.0929 27.5088 56.0532 26.8148ZM62.8796 28.94C62.6751 28.6088 62.7167 27.5433 62.7356 26.8274C62.7605 26.3232 63.0783 24.9067 62.928 24.5953C62.7543 24.2392 62.0222 24.1059 61.7072 24.4247C61.2829 24.8447 61.284 27.1112 61.301 27.6198C61.3472 28.3848 61.3591 29.3433 61.6281 29.8643C61.9866 30.6058 63.0315 30.5748 63.6309 30.2296C63.9467 30.0376 64.6523 29.0841 64.7314 29.1346C64.8384 29.1881 65.1683 30.3349 65.3845 30.5547C65.8404 31.039 66.6076 30.8381 67.218 30.5222C68.6065 29.7672 69.9838 27.378 70.1183 25.0272C69.8522 24.4784 69.0688 24.565 68.7955 24.8882C68.5384 25.3257 68.3371 26.5715 68.0419 27.371C67.7255 28.2387 66.7247 29.4568 66.4088 29.3813C66.0527 29.2876 66.0098 27.2841 65.6477 26.7111C65.4293 26.3785 65.0571 26.4379 64.764 26.5479C64.2833 26.8352 63.6673 28.8116 62.8796 28.94Z" fill="black"/>
</svg>
